HIERARCHY
ROOT Hips
{
	OFFSET 0.0 0.0 0.0
	CHANNELS 6 Xposition Yposition Zposition Xrotation Yrotation Zrotation
	JOINT Spine
	{
		OFFSET 0.0 0.35 0.0
		CHANNELS 3 Xrotation Yrotation Zrotation
		End Site
		{
			OFFSET 0.0 0.30 0.0
		}
	}
}
MOTION
Frames: 2
Frame Time: 0.1
0 0.65 0 0 0 0 0 0 0
0 0.65 0 0 0 0 3 0 0
